<svg width="19" height="16" viewBox="0 0 19 16" fill="none" xmlns="http://www.w3.org/2000/svg">
<path d="M12.9928 0.505238C11.7229 0.56108 10.5841 1.06292 9.59713 1.98708L9.49475 2.08638L9.38823 1.98313C8.32974 1.00405 7.11528 0.5 5.76758 0.5C3.00501 0.5 0.75 2.74023 0.75 5.50258C0.75 8.20405 1.73641 9.48522 6.15962 12.9801L8.51164 14.8156C9.09273 15.2685 9.90727 15.2685 10.4884 14.8156L12.557 13.2034L13.3735 12.5561C17.3441 9.37598 18.25 8.09149 18.25 5.50258C18.25 2.74023 15.995 0.5 13.2324 0.5L12.9928 0.505238ZM13.2324 2.075C15.1274 2.075 16.675 3.61241 16.675 5.50258L16.6707 5.75948C16.6043 7.64651 15.7415 8.68304 11.8503 11.7552L9.52017 13.5734C9.50831 13.5826 9.49169 13.5826 9.47983 13.5734L7.4112 11.9611L6.64662 11.3558C3.02218 8.46047 2.325 7.47091 2.325 5.50258C2.325 3.61241 3.87255 2.075 5.76758 2.075C6.93388 2.075 7.96068 2.61538 8.8908 3.75084C9.20795 4.138 9.80107 4.13498 10.1143 3.74461C11.0216 2.61369 12.0451 2.075 13.2324 2.075Z" fill="#99A2AD"/>
</svg>
