<svg width="23" height="23" viewBox="0 0 23 23" fill="none" xmlns="http://www.w3.org/2000/svg">
<path d="M12.108 2.95055L19.0282 9.52476C19.4898 9.96334 19.7512 10.5722 19.7512 11.209V17.9005C19.7512 18.9697 18.8845 19.8364 17.8153 19.8364H13.1692C12.7415 19.8364 12.3948 19.4897 12.3948 19.0621V14.803C12.3948 14.1615 11.8748 13.6414 11.2333 13.6414C10.5918 13.6414 10.0717 14.1615 10.0717 14.803V19.0621C10.0717 19.4897 9.72505 19.8364 9.29738 19.8364H4.65123C3.58206 19.8364 2.71533 18.9697 2.71533 17.9005V11.209C2.71533 10.5722 2.97672 9.96334 3.43839 9.52476L10.3586 2.95055C10.8488 2.48491 11.6178 2.48491 12.108 2.95055ZM11.2333 4.25578L4.50507 10.6476C4.35118 10.7938 4.26405 10.9967 4.26405 11.209V17.9005C4.26405 18.1143 4.4374 18.2877 4.65123 18.2877H8.52302V14.803C8.52302 13.3061 9.73645 12.0927 11.2333 12.0927C12.7301 12.0927 13.9435 13.3061 13.9435 14.803V18.2877H17.8153C18.0292 18.2877 18.2025 18.1143 18.2025 17.9005V11.209C18.2025 10.9967 18.1154 10.7938 17.9615 10.6476L11.2333 4.25578Z" fill="#2975CC"/>
</svg>
