<svg width="19" height="15" viewBox="0 0 19 15" fill="none" xmlns="http://www.w3.org/2000/svg">
<path d="M9.4968 0.259728C8.52052 0.328617 7.7499 1.14244 7.7499 2.13625L7.74903 3.98869L7.73115 3.99298C3.7654 4.81459 0.837402 8.32873 0.837402 12.4748C0.837402 12.776 0.852809 13.0762 0.883281 13.3739C0.955927 14.0837 1.85949 14.3387 2.29254 13.7717L2.456 13.5648C3.7329 12.0017 5.55089 10.9763 7.56222 10.7076L7.74903 10.6851L7.7499 12.8676C7.7499 13.2881 7.89095 13.6967 8.1505 14.0279C8.79143 14.8456 9.97392 14.989 10.7917 14.348L17.6374 8.98247C17.7566 8.88903 17.8641 8.78154 17.9575 8.66233C18.5985 7.84459 18.4551 6.6621 17.6374 6.02117L10.7917 0.655606C10.4605 0.396053 10.0519 0.255005 9.63115 0.255005L9.4968 0.259728ZM9.63115 1.83C9.69965 1.83 9.76616 1.85297 9.82007 1.89522L16.6658 7.26078C16.7989 7.36512 16.8222 7.55762 16.7179 7.69074C16.7027 7.71014 16.6852 7.72764 16.6658 7.74285L9.82007 13.1084C9.68695 13.2128 9.49445 13.1894 9.39012 13.0563C9.34786 13.0024 9.3249 12.9359 9.3249 12.8674L9.32403 9.85096C9.3239 9.41107 8.96342 9.05657 8.52358 9.0638L8.31958 9.06715L8.02014 9.08161C6.03031 9.20861 4.17299 9.94538 2.66641 11.1517L2.5139 11.2774L2.53473 11.159C3.09719 8.17049 5.54029 5.81682 8.63204 5.43978C9.02709 5.3916 9.3241 5.05626 9.32421 4.65828L9.3249 2.13647C9.3249 1.96712 9.46201 1.83 9.63115 1.83Z" fill="#99A2AD"/>
</svg>
