<svg width="22" height="22" viewBox="0 0 22 22" fill="none" xmlns="http://www.w3.org/2000/svg">
<path d="M11.0046 0.499969C15.5359 0.499969 19 4.29404 19 9.08143L18.9954 10.9081C18.9958 11.2154 19.1946 11.5707 19.7335 12.205C19.8012 12.2846 19.8649 12.3585 20.0043 12.5194C21.0744 13.7576 21.5 14.4744 21.5 15.5882C21.5 16.0893 21.443 16.4785 21.2056 16.9455C20.6996 17.9409 19.6182 18.5 18 18.5L15.3989 18.5007C14.731 20.7645 13.2123 22 11 22C8.78768 22 7.26905 20.7645 6.60115 18.5007L4 18.5C2.33483 18.5 1.24203 17.9258 0.757975 16.8962C0.54802 16.4497 0.5 16.0874 0.5 15.5882C0.5 14.4749 0.924754 13.7582 1.99283 12.5201C2.13191 12.3592 2.19552 12.2853 2.26308 12.2057C2.80171 11.5705 3 11.2151 3 10.9071V9.07892C3 4.29568 6.47202 0.499969 11.0046 0.499969ZM13.2794 18.5008H8.7206C9.17139 19.5431 9.89866 20 11 20C12.1013 20 12.8286 19.5431 13.2794 18.5008ZM11.0046 2.49997C7.61835 2.49997 5 5.36242 5 9.07892V10.9071C5 11.8348 4.6156 12.5239 3.78841 13.4992C3.71509 13.5857 3.64587 13.6661 3.50717 13.8266C2.74712 14.7076 2.5 15.1246 2.5 15.5882C2.5 15.8143 2.51597 15.9348 2.56791 16.0453C2.69184 16.3089 3.05558 16.5 4 16.5H18C18.9142 16.5 19.2863 16.3076 19.4228 16.0392C19.4818 15.9229 19.5 15.7989 19.5 15.5882C19.5 15.1251 19.2524 14.7081 18.4911 13.8273C18.3522 13.6668 18.2828 13.5864 18.2094 13.4999C17.3806 12.5244 16.9954 11.8353 16.9954 10.9071L17 9.07892C17 5.36005 14.3886 2.49997 11.0046 2.49997Z" fill="#3F8AE0"/>
</svg>
