<svg width="18" height="19" viewBox="0 0 18 19" fill="none" xmlns="http://www.w3.org/2000/svg">
<path fill-rule="evenodd" clip-rule="evenodd" d="M6.91558 18.9999C3.2804 18.9999 0.333499 16.0572 0.333496 12.4272H1.88221C1.88222 15.2031 4.13573 17.4534 6.91557 17.4534L7.30272 17.4534C7.73039 17.4534 8.07709 17.7996 8.07709 18.2266C8.07709 18.6537 7.7304 18.9999 7.30273 18.9999L6.91558 18.9999Z" fill="#99A2AD"/>
<path fill-rule="evenodd" clip-rule="evenodd" d="M10.013 7.40112C10.013 6.97406 10.3597 6.62787 10.7873 6.62787C12.479 6.62787 13.9638 7.51923 14.7763 8.85565C14.9982 9.2207 14.8818 9.69629 14.5162 9.91791C14.1506 10.1395 13.6744 10.0232 13.4524 9.6582C12.9135 8.77176 11.9241 8.17437 10.7873 8.17437C10.3597 8.17437 10.013 7.82818 10.013 7.40112Z" fill="#99A2AD"/>
<path fill-rule="evenodd" clip-rule="evenodd" d="M11.1745 17.449L15.8195 14.7513C15.8199 14.7511 15.8202 14.7509 15.8205 14.7507C15.8206 14.7496 15.8207 14.7484 15.8207 14.747C15.8207 14.7457 15.8206 14.7444 15.8205 14.7433C15.8202 14.7431 15.8199 14.7429 15.8195 14.7427L11.1745 12.045C11.1745 12.0455 11.1745 12.046 11.1745 12.0466V17.4475C11.1745 17.448 11.1745 17.4485 11.1745 17.449ZM16.5982 16.0882C17.6265 15.4909 17.6265 14.0031 16.5982 13.4059L11.9484 10.7054C10.9172 10.1065 9.62581 10.8521 9.62581 12.0466V17.4475C9.62581 18.6419 10.9172 19.3875 11.9484 18.7886L16.5982 16.0882Z" fill="#99A2AD"/>
<path fill-rule="evenodd" clip-rule="evenodd" d="M9.73307 1.98804C9.14768 1.85815 8.56841 2.22934 8.44276 2.81485L7.67272 6.40325C7.58311 6.82082 7.17147 7.0868 6.7533 6.99732C6.33512 6.90783 6.06877 6.49678 6.15838 6.07921L6.92842 2.49081C7.23425 1.06567 8.64421 0.162192 10.069 0.478367C11.4007 0.773872 12.2847 2.03748 12.1044 3.38774L11.5549 7.5033C11.4984 7.92661 11.1089 8.22402 10.685 8.16758C10.2611 8.11113 9.96325 7.72222 10.0198 7.29891L10.5693 3.18335C10.6434 2.6286 10.2802 2.10945 9.73307 1.98804Z" fill="#99A2AD"/>
<path d="M3.21677 3.55506C3.16151 2.92054 3.66242 2.37496 4.30025 2.37496C4.7993 2.37496 5.23431 2.71412 5.35535 3.19758L6.1643 6.42876C6.26803 6.84307 6.68845 7.09496 7.10335 6.99139C7.51825 6.88781 7.7705 6.46799 7.66678 6.05368L6.85783 2.8225C6.56443 1.65059 5.50996 0.828457 4.30025 0.828457C2.75414 0.828457 1.53993 2.15094 1.67387 3.68903L2.24666 10.2667L3.72109 9.34646L3.21677 3.55506Z" fill="#99A2AD"/>
<path fill-rule="evenodd" clip-rule="evenodd" d="M6.50702 10.2898C6.39014 9.76453 5.90682 9.40311 5.36919 9.4389L4.41219 9.50261C2.9885 9.59739 1.88221 10.7782 1.88221 12.203V12.4272C1.88221 12.8543 1.53552 13.2005 1.10786 13.2005C0.680188 13.2005 0.333496 12.8543 0.333496 12.4272V12.203C0.333496 9.96401 2.07194 8.10847 4.30917 7.95953L5.26617 7.89582C6.56684 7.80924 7.73608 8.6836 8.01886 9.95429C8.34718 11.4296 7.36868 12.878 5.87578 13.1265L5.49413 13.19C5.07229 13.2602 4.67331 12.9756 4.60301 12.5544C4.5327 12.1331 4.81768 11.7347 5.23953 11.6645L5.62118 11.601C6.23827 11.4983 6.64274 10.8996 6.50702 10.2898Z" fill="#99A2AD"/>
</svg>
