<svg width="21" height="21" viewBox="0 0 21 21" fill="none" xmlns="http://www.w3.org/2000/svg">
<path d="M14.7833 3.5H6.21675C5.20885 3.5 4.695 3.59923 4.16019 3.88525C3.66647 4.14929 3.27429 4.54147 3.01025 5.03519C2.72423 5.57 2.625 6.08385 2.625 7.09175V12.1583C2.625 13.1662 2.72423 13.68 3.01025 14.2148C3.27429 14.7085 3.66647 15.1007 4.16019 15.3648L4.28347 15.4275C4.73585 15.6456 5.20159 15.7348 5.99269 15.7482L6.2125 15.75V17.688C6.2125 18.0659 6.36063 18.4287 6.62511 18.6986L6.72715 18.7932C7.28955 19.2672 8.13079 19.2444 8.66677 18.7192L11.6953 15.75H14.7833C15.7912 15.75 16.305 15.6508 16.8398 15.3648C17.3335 15.1007 17.7257 14.7085 17.9898 14.2148C18.2758 13.68 18.375 13.1662 18.375 12.1583V7.09175C18.375 6.08385 18.2758 5.57 17.9898 5.03519C17.7257 4.54147 17.3335 4.14929 16.8398 3.88525C16.305 3.59923 15.7912 3.5 14.7833 3.5ZM6.0477 5.07594L14.7833 5.075C15.5534 5.075 15.8216 5.12679 16.097 5.2741C16.3163 5.39136 16.4836 5.55871 16.6009 5.77796C16.7482 6.05341 16.8 6.32162 16.8 7.09175V12.1583L16.7962 12.4799C16.7818 13.0111 16.7255 13.239 16.6009 13.472C16.4836 13.6913 16.3163 13.8586 16.097 13.9759C15.8216 14.1232 15.5534 14.175 14.7833 14.175H11.375L11.2728 14.1817C11.1043 14.2037 10.9465 14.2798 10.8238 14.4001L7.7875 17.3749V14.9625C7.7875 14.5276 7.43492 14.175 7 14.175H6.21675L5.89509 14.1712C5.36392 14.1568 5.13603 14.1005 4.90296 13.9759C4.68371 13.8586 4.51636 13.6913 4.3991 13.472C4.25179 13.1966 4.2 12.9284 4.2 12.1583V7.09175L4.20384 6.77009C4.2182 6.23892 4.27446 6.01103 4.3991 5.77796C4.51636 5.55871 4.68371 5.39136 4.90296 5.2741C5.15722 5.13813 5.40531 5.08353 6.0477 5.07594Z" fill="#99A2AD"/>
</svg>
