<svg width="21" height="21" viewBox="0 0 21 21" fill="none" xmlns="http://www.w3.org/2000/svg">
<path d="M13.9928 3.50524C12.7229 3.56108 11.5841 4.06292 10.5971 4.98708L10.4948 5.08638L10.3882 4.98313C9.32974 4.00405 8.11528 3.5 6.76758 3.5C4.00501 3.5 1.75 5.74023 1.75 8.50258C1.75 11.204 2.73641 12.4852 7.15962 15.9801L9.51164 17.8156C10.0927 18.2685 10.9073 18.2685 11.4884 17.8156L13.557 16.2034L14.3735 15.5561C18.3441 12.376 19.25 11.0915 19.25 8.50258C19.25 5.74023 16.995 3.5 14.2324 3.5L13.9928 3.50524ZM14.2324 5.075C16.1274 5.075 17.675 6.61241 17.675 8.50258L17.6707 8.75948C17.6043 10.6465 16.7415 11.683 12.8503 14.7552L10.5202 16.5734C10.5083 16.5826 10.4917 16.5826 10.4798 16.5734L8.4112 14.9611L7.64662 14.3558C4.02218 11.4605 3.325 10.4709 3.325 8.50258C3.325 6.61241 4.87255 5.075 6.76758 5.075C7.93388 5.075 8.96068 5.61538 9.8908 6.75084C10.2079 7.138 10.8011 7.13498 11.1143 6.74461C12.0216 5.61369 13.0451 5.075 14.2324 5.075Z" fill="#99A2AD"/>
</svg>
