<svg width="21" height="21" viewBox="0 0 21 21" fill="none" xmlns="http://www.w3.org/2000/svg">
<path d="M10.4968 3.25973C9.52052 3.32862 8.7499 4.14244 8.7499 5.13625L8.74903 6.98869L8.73116 6.99298C4.7654 7.81459 1.8374 11.3287 1.8374 15.4748C1.8374 15.776 1.85281 16.0762 1.88328 16.3739C1.95593 17.0837 2.85949 17.3387 3.29254 16.7717L3.456 16.5648C4.7329 15.0017 6.55089 13.9763 8.56222 13.7076L8.74903 13.6851L8.7499 15.8676C8.7499 16.2881 8.89095 16.6967 9.1505 17.0279C9.79144 17.8456 10.9739 17.989 11.7917 17.348L18.6374 11.9825C18.7566 11.889 18.8641 11.7815 18.9575 11.6623C19.5985 10.8446 19.4551 9.6621 18.6374 9.02117L11.7917 3.65561C11.4605 3.39605 11.0519 3.255 10.6312 3.255L10.4968 3.25973ZM10.6312 4.83C10.6996 4.83 10.7662 4.85297 10.8201 4.89522L17.6658 10.2608C17.7989 10.3651 17.8222 10.5576 17.7179 10.6907C17.7027 10.7101 17.6852 10.7276 17.6658 10.7429L10.8201 16.1084C10.687 16.2128 10.4945 16.1894 10.3901 16.0563C10.3479 16.0024 10.3249 15.9359 10.3249 15.8674L10.324 12.851C10.3239 12.4111 9.96342 12.0566 9.52358 12.0638L9.31958 12.0672L9.02014 12.0816C7.03031 12.2086 5.17299 12.9454 3.66641 14.1517L3.5139 14.2774L3.53473 14.159C4.09719 11.1705 6.54029 8.81682 9.63204 8.43978C10.0271 8.3916 10.3241 8.05626 10.3242 7.65828L10.3249 5.13647C10.3249 4.96712 10.462 4.83 10.6312 4.83Z" fill="#99A2AD"/>
</svg>
