<svg width="17" height="17" viewBox="0 0 17 17" fill="none" xmlns="http://www.w3.org/2000/svg">
<path d="M12.7833 0.5H4.21675C3.20885 0.5 2.695 0.599228 2.16019 0.885248C1.66647 1.14929 1.27429 1.54147 1.01025 2.03519C0.724228 2.57 0.625 3.08385 0.625 4.09175V9.15825C0.625 10.1662 0.724228 10.68 1.01025 11.2148C1.27429 11.7085 1.66647 12.1007 2.16019 12.3648L2.28347 12.4275C2.73585 12.6456 3.20159 12.7348 3.99269 12.7482L4.2125 12.75V14.688C4.2125 15.0659 4.36063 15.4287 4.62511 15.6986L4.72715 15.7932C5.28955 16.2672 6.13079 16.2444 6.66677 15.7192L9.69525 12.75H12.7833C13.7912 12.75 14.305 12.6508 14.8398 12.3648C15.3335 12.1007 15.7257 11.7085 15.9898 11.2148C16.2758 10.68 16.375 10.1662 16.375 9.15825V4.09175C16.375 3.08385 16.2758 2.57 15.9898 2.03519C15.7257 1.54147 15.3335 1.14929 14.8398 0.885248C14.305 0.599228 13.7912 0.5 12.7833 0.5V0.5ZM4.0477 2.07594L12.7833 2.075C13.5534 2.075 13.8216 2.12679 14.097 2.2741C14.3163 2.39136 14.4836 2.55871 14.6009 2.77796C14.7482 3.05341 14.8 3.32162 14.8 4.09175V9.15825L14.7962 9.47991C14.7818 10.0111 14.7255 10.239 14.6009 10.472C14.4836 10.6913 14.3163 10.8586 14.097 10.9759C13.8216 11.1232 13.5534 11.175 12.7833 11.175H9.375L9.27283 11.1817C9.10434 11.2037 8.94647 11.2798 8.82381 11.4001L5.7875 14.3749V11.9625C5.7875 11.5276 5.43492 11.175 5 11.175H4.21675L3.89509 11.1712C3.36392 11.1568 3.13603 11.1005 2.90296 10.9759C2.68371 10.8586 2.51636 10.6913 2.3991 10.472C2.25179 10.1966 2.2 9.92838 2.2 9.15825V4.09175L2.20384 3.77009C2.2182 3.23892 2.27446 3.01103 2.3991 2.77796C2.51636 2.55871 2.68371 2.39136 2.90296 2.2741C3.15722 2.13813 3.40531 2.08353 4.0477 2.07594V2.07594Z" fill="#99A2AD"/>
</svg>
