<svg width="23" height="23" viewBox="0 0 23 23" fill="none" xmlns="http://www.w3.org/2000/svg">
<path d="M11.5408 2.41528C16.6728 2.41528 20.8332 6.57559 20.8332 11.7076C20.8332 16.8396 16.6728 20.9999 11.5408 20.9999C6.40884 20.9999 2.24854 16.8396 2.24854 11.7076C2.24854 6.57559 6.40884 2.41528 11.5408 2.41528ZM11.5408 16.7409C9.92558 16.7409 8.38149 17.1916 7.05205 18.0179C8.31809 18.9204 9.86748 19.4512 11.5408 19.4512C13.2139 19.4512 14.763 18.9206 16.0291 18.0186C14.6998 17.1915 13.1559 16.7409 11.5408 16.7409ZM11.5408 3.964C7.26418 3.964 3.79725 7.43092 3.79725 11.7076C3.79725 13.7331 4.57491 15.5769 5.84793 16.9568C7.50304 15.818 9.47407 15.1922 11.5408 15.1922C13.6078 15.1922 15.5791 15.8182 17.2344 16.9557C18.5071 15.5762 19.2844 13.7327 19.2844 11.7076C19.2844 7.43092 15.8175 3.964 11.5408 3.964ZM11.5408 6.67426C13.5729 6.67426 15.219 8.32042 15.219 10.3525C15.219 12.3845 13.5729 14.0307 11.5408 14.0307C9.5088 14.0307 7.86264 12.3845 7.86264 10.3525C7.86264 8.32042 9.5088 6.67426 11.5408 6.67426ZM11.5408 8.22298C10.3641 8.22298 9.41136 9.17575 9.41136 10.3525C9.41136 11.5292 10.3641 12.482 11.5408 12.482C12.7176 12.482 13.6703 11.5292 13.6703 10.3525C13.6703 9.17575 12.7176 8.22298 11.5408 8.22298Z" fill="#99A2AD"/>
</svg>
