<svg width="23" height="23" viewBox="0 0 23 23" fill="none" xmlns="http://www.w3.org/2000/svg">
<path d="M7.52817 12.4821C8.35316 12.4821 8.78538 12.5656 9.23557 12.8064C9.65445 13.0304 9.98782 13.3638 10.2118 13.7826C10.4526 14.2328 10.5361 14.665 10.5361 15.49V17.2178C10.5361 18.0428 10.4526 18.475 10.2118 18.9252C9.98782 19.3441 9.65445 19.6775 9.23557 19.9015C8.78538 20.1423 8.35316 20.2257 7.52817 20.2257H5.80038C4.97539 20.2257 4.54318 20.1423 4.09298 19.9015C3.6741 19.6775 3.34073 19.3441 3.11671 18.9252C2.87594 18.475 2.79248 18.0428 2.79248 17.2178V15.49C2.79248 14.665 2.87594 14.2328 3.11671 13.7826C3.34073 13.3638 3.6741 13.0304 4.09298 12.8064C4.54318 12.5656 4.97539 12.4821 5.80038 12.4821H7.52817ZM16.8205 12.4821C17.6455 12.4821 18.0777 12.5656 18.5279 12.8064C18.9468 13.0304 19.2801 13.3638 19.5041 13.7826C19.7449 14.2328 19.8284 14.665 19.8284 15.49V17.2178C19.8284 18.0428 19.7449 18.475 19.5041 18.9252C19.2801 19.3441 18.9468 19.6775 18.5279 19.9015C18.0777 20.1423 17.6455 20.2257 16.8205 20.2257H15.0927C14.2677 20.2257 13.8355 20.1423 13.3853 19.9015C12.9664 19.6775 12.633 19.3441 12.409 18.9252C12.1683 18.475 12.0848 18.0428 12.0848 17.2178V15.49C12.0848 14.665 12.1683 14.2328 12.409 13.7826C12.633 13.3638 12.9664 13.0304 13.3853 12.8064C13.8355 12.5656 14.2677 12.4821 15.0927 12.4821H16.8205ZM7.52817 14.0309H5.80038C5.20919 14.0309 5.01851 14.0677 4.82335 14.172C4.67437 14.2517 4.56207 14.364 4.48239 14.513C4.37802 14.7082 4.3412 14.8988 4.3412 15.49V17.2178C4.3412 17.809 4.37802 17.9997 4.48239 18.1949C4.56207 18.3438 4.67437 18.4561 4.82335 18.5358C5.01851 18.6402 5.20919 18.677 5.80038 18.677H7.52817C8.11936 18.677 8.31004 18.6402 8.5052 18.5358C8.65419 18.4561 8.76648 18.3438 8.84616 18.1949C8.95053 17.9997 8.98735 17.809 8.98735 17.2178V15.49C8.98735 14.8988 8.95053 14.7082 8.84616 14.513C8.76648 14.364 8.65419 14.2517 8.5052 14.172C8.31004 14.0677 8.11936 14.0309 7.52817 14.0309ZM16.8205 14.0309H15.0927C14.5015 14.0309 14.3108 14.0677 14.1157 14.172C13.9667 14.2517 13.8544 14.364 13.7747 14.513C13.6703 14.7082 13.6335 14.8988 13.6335 15.49V17.2178C13.6335 17.809 13.6703 17.9997 13.7747 18.1949C13.8544 18.3438 13.9667 18.4561 14.1157 18.5358C14.3108 18.6402 14.5015 18.677 15.0927 18.677H16.8205C17.4117 18.677 17.6023 18.6402 17.7975 18.5358C17.9465 18.4561 18.0588 18.3438 18.1385 18.1949C18.2428 17.9997 18.2797 17.809 18.2797 17.2178V15.49C18.2797 14.8988 18.2428 14.7082 18.1385 14.513C18.0588 14.364 17.9465 14.2517 17.7975 14.172C17.6023 14.0677 17.4117 14.0309 16.8205 14.0309ZM16.6469 2.73493C17.1355 2.88302 17.5001 3.12962 18.0835 3.71298L19.3052 4.93471C19.8886 5.51807 20.1352 5.88271 20.2833 6.3713C20.4211 6.82589 20.4211 7.29735 20.2833 7.75194C20.1352 8.24053 19.8886 8.60517 19.3052 9.18852L18.0835 10.4103C17.5001 10.9936 17.1355 11.2402 16.6469 11.3883C16.1923 11.5261 15.7209 11.5261 15.2663 11.3883C14.7777 11.2402 14.413 10.9936 13.8297 10.4103L12.6079 9.18852C12.0246 8.60517 11.778 8.24053 11.6299 7.75194C11.4921 7.29735 11.4921 6.82589 11.6299 6.3713C11.778 5.88271 12.0246 5.51807 12.6079 4.93471L13.8297 3.71298C14.413 3.12962 14.7777 2.88302 15.2663 2.73493C15.7209 2.59715 16.1923 2.59715 16.6469 2.73493ZM7.52817 3.18982C8.35316 3.18982 8.78538 3.27329 9.23557 3.51406C9.65445 3.73808 9.98782 4.07144 10.2118 4.49032C10.4526 4.94052 10.5361 5.37273 10.5361 6.19772V7.92552C10.5361 8.75051 10.4526 9.18272 10.2118 9.63292C9.98782 10.0518 9.65445 10.3852 9.23557 10.6092C8.78538 10.85 8.35316 10.9334 7.52817 10.9334H5.80038C4.97539 10.9334 4.54318 10.85 4.09298 10.6092C3.6741 10.3852 3.34073 10.0518 3.11671 9.63292C2.87594 9.18272 2.79248 8.75051 2.79248 7.92552V6.19772C2.79248 5.37273 2.87594 4.94052 3.11671 4.49032C3.34073 4.07144 3.6741 3.73808 4.09298 3.51406C4.54318 3.27329 4.97539 3.18982 5.80038 3.18982H7.52817ZM15.7155 4.21707C15.5037 4.28126 15.3428 4.39006 14.9248 4.80809L13.7031 6.02982C13.285 6.44786 13.1762 6.60872 13.112 6.82053C13.063 6.98222 13.063 7.14102 13.112 7.30271C13.1762 7.51451 13.285 7.67538 13.7031 8.09342L14.9248 9.31515C15.3428 9.73318 15.5037 9.84198 15.7155 9.90617C15.8772 9.95518 16.036 9.95518 16.1977 9.90617C16.4095 9.84198 16.5703 9.73318 16.9884 9.31515L18.2101 8.09342C18.6281 7.67538 18.7369 7.51451 18.8011 7.30271C18.8501 7.14102 18.8501 6.98222 18.8011 6.82053C18.7369 6.60872 18.6281 6.44786 18.2101 6.02982L16.9884 4.80809C16.5703 4.39006 16.4095 4.28126 16.1977 4.21707C16.036 4.16806 15.8772 4.16806 15.7155 4.21707ZM7.52817 4.73854H5.80038C5.20919 4.73854 5.01851 4.77536 4.82335 4.87974C4.67437 4.95941 4.56207 5.07171 4.48239 5.22069C4.37802 5.41585 4.3412 5.60653 4.3412 6.19772V7.92552C4.3412 8.5167 4.37802 8.70738 4.48239 8.90254C4.56207 9.05153 4.67437 9.16382 4.82335 9.2435C5.01851 9.34787 5.20919 9.3847 5.80038 9.3847H7.52817C8.11936 9.3847 8.31004 9.34787 8.5052 9.2435C8.65419 9.16382 8.76648 9.05153 8.84616 8.90254C8.95053 8.70738 8.98735 8.5167 8.98735 7.92552V6.19772C8.98735 5.60653 8.95053 5.41585 8.84616 5.22069C8.76648 5.07171 8.65419 4.95941 8.5052 4.87974C8.31004 4.77536 8.11936 4.73854 7.52817 4.73854Z" fill="#99A2AD"/>
</svg>
