<svg width="23" height="23" viewBox="0 0 23 23" fill="none" xmlns="http://www.w3.org/2000/svg">
<path fill-rule="evenodd" clip-rule="evenodd" d="M2.51035 11.3197C2.51035 6.93686 6.60594 3.5769 11.4012 3.5769C16.1965 3.5769 20.2921 6.93686 20.2921 11.3197C20.2921 15.7025 16.1965 19.0625 11.4012 19.0625C10.3379 19.0625 9.31585 18.8999 8.36728 18.6005C7.24845 19.6447 5.62283 20.1466 3.63426 20.2248C2.82421 20.2566 2.23952 19.4141 2.57871 18.6599C3.0599 17.5824 3.68163 16.3472 3.75536 15.2699C2.96796 14.1233 2.51035 12.7702 2.51035 11.3197ZM11.4012 5.12562C7.23124 5.12562 4.05907 8.00539 4.05907 11.3197C4.05907 12.5098 4.45758 13.6264 5.1601 14.5725C5.25923 14.706 5.31275 14.8678 5.31275 15.0341C5.31275 16.2992 4.80844 17.4929 4.29492 18.6257C5.88705 18.4566 6.93154 17.9468 7.56136 17.2056C7.77289 16.9567 8.11788 16.8673 8.42369 16.9821C9.33139 17.323 10.3383 17.5137 11.4012 17.5137C15.5712 17.5137 18.7434 14.634 18.7434 11.3197C18.7434 8.00539 15.5712 5.12562 11.4012 5.12562Z" fill="#99A2AD"/>
</svg>
