<svg width="21" height="21" viewBox="0 0 21 21" fill="none" xmlns="http://www.w3.org/2000/svg">
<path d="M9 0.499969C13.6944 0.499969 17.5 4.30555 17.5 8.99997C17.5 10.987 16.8182 12.8147 15.6758 14.262L20.2071 18.7929C20.5976 19.1834 20.5976 19.8166 20.2071 20.2071C19.8166 20.5976 19.1834 20.5976 18.7929 20.2071L14.2621 15.6758C12.8147 16.8182 10.987 17.5 9 17.5C4.30558 17.5 0.5 13.6944 0.5 8.99997C0.5 4.30555 4.30558 0.499969 9 0.499969ZM9 2.49997C5.41015 2.49997 2.5 5.41012 2.5 8.99997C2.5 12.5898 5.41015 15.5 9 15.5C12.5899 15.5 15.5 12.5898 15.5 8.99997C15.5 5.41012 12.5899 2.49997 9 2.49997Z" fill="#3F8AE0"/>
</svg>
