<svg width="21" height="14" viewBox="0 0 21 14" fill="none" xmlns="http://www.w3.org/2000/svg">
<path fill-rule="evenodd" clip-rule="evenodd" d="M10.5 10.2812C12.3122 10.2812 13.7812 8.81218 13.7812 7C13.7812 5.18782 12.3122 3.71875 10.5 3.71875C8.68782 3.71875 7.21875 5.18782 7.21875 7C7.21875 8.81218 8.68782 10.2812 10.5 10.2812ZM11.8125 7C11.8125 7.72487 11.2249 8.3125 10.5 8.3125C9.77513 8.3125 9.1875 7.72487 9.1875 7C9.1875 6.27513 9.77513 5.6875 10.5 5.6875C11.2249 5.6875 11.8125 6.27513 11.8125 7Z" fill="#B8C1CC"/>
<path fill-rule="evenodd" clip-rule="evenodd" d="M10.5 13.8906C12.9408 13.8906 15.2165 12.9857 16.8853 11.8077C17.7249 11.215 18.467 10.5143 19.0175 9.75231C19.5468 9.01935 20.0156 8.06425 20.0156 7C20.0156 5.93575 19.5468 4.98065 19.0175 4.2477C18.467 3.48568 17.7249 2.78499 16.8853 2.19238C15.2165 1.01433 12.9408 0.109375 10.5 0.109375C8.05924 0.109375 5.78354 1.01433 4.11466 2.19238C3.27513 2.78499 2.53294 3.48568 1.98258 4.2477C1.45324 4.98065 0.984375 5.93575 0.984375 7C0.984375 8.06425 1.45324 9.01935 1.98258 9.75231C2.53294 10.5143 3.27513 11.215 4.11466 11.8077C5.78354 12.9857 8.05924 13.8906 10.5 13.8906ZM18.0469 7C18.0469 8.96875 14.4375 11.9219 10.5 11.9219C6.5625 11.9219 2.95312 8.96875 2.95312 7C2.95312 5.03125 6.5625 2.07812 10.5 2.07812C14.4375 2.07812 18.0469 5.03125 18.0469 7Z" fill="#B8C1CC"/>
</svg>
